<?xml version="1.0" standalone="no"?>
<!DOCTYPE svg PUBLIC "-//W3C//DTD SVG 1.1//EN" "http://www.w3.org/Graphics/SVG/1.1/DTD/svg11.dtd" >
<!--
2013-9-30: Created.
-->
<svg>
<metadata>
Created by iconfont
</metadata>
<defs>

<font id="iconfont" horiz-adv-x="1024" >
  <font-face
    font-family="iconfont"
    font-weight="500"
    font-stretch="normal"
    units-per-em="1024"
    ascent="896"
    descent="-128"
  />
    <missing-glyph />
    
    <glyph glyph-name="tongxunbu" unicode="&#59147;" d="M509.154 763.978c-270.508 0-489.797-219.291-489.797-489.797 0-270.54 219.291-489.797 489.797-489.797 270.474 0 489.761 219.291 489.761 489.797s-219.291 489.797-489.761 489.797zM237.49 376.198h71.613v-34.427h-71.613v34.427zM237.49 271.241h71.613v-34.427h-71.613v34.427zM237.49 166.287h71.613v-34.427h-71.613v34.427zM763.88 515.057v-523.693h-489.761v71.613h34.987v-36.63h419.791v488.715h-413.947v-68.887h-37.886v104.956h486.822v-36.065zM456.361 250.673c-4.372 3.396-8.676 7.283-12.665 11.373-20.958 21.936-32.468 51.013-32.468 82.005s11.581 60.141 32.468 82.005c20.605 21.482 47.861 33.517 76.863 33.939 0.523 0 0.941 0 1.397 0s0.941 0 1.434 0c29.071-0.421 56.228-12.452 76.823-33.939 21.025-21.901 32.535-51.013 32.535-82.005s-11.547-60.108-32.535-82.005c-3.993-4.096-8.117-8.014-12.665-11.373-3.956-2.973-7.973-5.771-12.139-8.185 23.161-7.771 44.99-20.57 63.951-37.886 2.693-2.378 5.211-4.931 7.733-7.452 11.475-11.79 21.341-25.017 29.388-39.254 1.856-3.322 3.638-6.789 5.251-10.284 8.501-17.913 13.959-37.12 16.656-56.956 0.77-6.333-3.569-12.175-9.517-13.084-0.523 0-1.012-0.070-1.575-0.070-0.349 0-0.876 0-1.294 0.070-4.441 1.012-7.973 4.793-8.604 9.727-5.107 36.596-21.829 69.934-45.936 95.374-28.475 30.054-67.382 48.942-109.264 49.117h-0.208c-41.909-0.103-80.923-18.995-109.471-49.117-24.069-25.473-40.83-58.771-45.936-95.374-0.734-5.038-4.231-8.716-8.676-9.727-0.455-0.070-0.839-0.070-1.294-0.070-0.523 0-0.976 0.070-1.506 0.070-6.119 0.911-10.32 6.747-9.517 13.084 2.556 19.838 8.117 38.937 16.588 56.956 1.607 3.502 3.426 6.96 5.251 10.284 8.014 14.207 17.878 27.43 29.421 39.254 2.447 2.521 5.038 5.069 7.771 7.452 18.822 17.317 40.653 30.122 63.951 37.886-4.199 2.411-8.327 5.211-12.212 8.185zM521.745 254.239c0.349 0 0.734 0 1.081 0 40.722 0.311 77.002 28.585 86.907 66.507 0.141 0.421 0.285 0.839 0.349 1.259 1.537 6.227 2.411 12.803 2.411 19.451 0 6.678-0.876 13.297-2.411 19.659-0.070 0.455-0.208 0.839-0.349 1.294-9.969 38.868-46.639 69.797-87.602 69.797h-0.455c-41.002 0-77.601-30.891-87.57-69.797-0.141-0.455-0.285-0.803-0.382-1.294-1.575-6.366-2.343-13.015-2.343-19.659 0-6.678 0.77-13.221 2.343-19.451 0.103-0.421 0.246-0.803 0.382-1.259 9.899-37.958 46.18-66.192 86.832-66.507 0.311 0 0.595 0 0.803 0z"  horiz-adv-x="1024" />

    
    <glyph glyph-name="zhangdan" unicode="&#59192;" d="M384.942945 563.105432 384.942945 731.424618l48.114827 0 2.59804 3.350937c16.540612 21.337742 44.748079 34.076167 75.457497 34.076167 30.708202 0 58.916885-12.738424 75.458713-34.076167l2.59804-3.352153 48.114827 0 0-168.319187L384.942945 563.104216zM606.052458 594.984941l0 104.562601-41.031033 0-0.316241 2.06408c-3.138082 20.489974-25.676324 35.361807-53.591875 35.361807-27.914336 0-50.451361-14.871834-53.589443-35.361807l-0.316241-2.06408-41.033465 0 0-104.562601L606.052458 594.984941zM268.432522-2.288185c-39.834183 0-72.241571 32.407388-72.241571 72.241571L196.190951 582.280573c0 39.834183 32.407388 72.241571 72.241571 72.241571l99.207184 0 0-36.624338L268.432522 617.897806c-19.638556 0-35.617233-15.97746-35.617233-35.617233l0-512.327188c0-19.638556 15.97746-35.616016 35.617233-35.616016l485.362791 0c19.638556 0 35.617233 15.97746 35.617233 35.616016L789.412546 582.280573c0 19.638556-15.978677 35.617233-35.617233 35.617233l-99.205968 0 0 36.624338 99.205968 0c39.835399 0 72.244003-32.407388 72.244003-72.241571l0-512.327188c0-39.834183-32.408604-72.241571-72.244003-72.241571L268.432522-2.288185zM337.246529 301.116925c-7.123933 0-12.919655 5.795722-12.919655 12.919655l0 10.786245c0 7.123933 5.795722 12.919655 12.919655 12.919655l347.843029 0c7.123933 0 12.919655-5.795722 12.919655-12.919655l0-10.786245c0-7.123933-5.795722-12.919655-12.919655-12.919655L337.246529 301.116925zM337.246529 166.293725c-7.123933 0-12.919655 5.795722-12.919655 12.919655l0 10.787462c0 7.122717 5.795722 12.918438 12.919655 12.918438l347.843029 0c7.123933 0 12.919655-5.795722 12.919655-12.918438l0-10.787462c0-7.123933-5.795722-12.919655-12.919655-12.919655L337.246529 166.293725zM337.246529 435.941342c-7.123933 0-12.919655 5.795722-12.919655 12.918438l0 10.786245c0 7.123933 5.795722 12.919655 12.919655 12.919655l347.843029 0c7.123933 0 12.919655-5.795722 12.919655-12.919655l0-10.786245c0-7.122717-5.795722-12.918438-12.919655-12.918438L337.246529 435.941342z"  horiz-adv-x="1024" />

    
    <glyph glyph-name="qikan" unicode="&#58990;" d="M489.438 756.017c-71.854 51.976-214.035 61.685-309.617 61.685-21.502 0-34.792-0.564-34.716-0.571-44.719-0.677-81.105-37.634-81.105-82.383v-645.263c0-45.433 36.965-82.398 82.398-82.398l2.422 0.135c0.248 0.030 25.36 2.677 63.22 2.677 61.708 0 178.514-7.378 267.583-56.767l5.106-2.828 4.709-0.007v805.72zM879.52 817.117c-0.556 0.022-13.854 0.586-35.341 0.586-95.582 0-237.763-9.709-309.617-61.685v-805.72l4.723 0.008 5.106 2.828c89.070 49.382 205.876 56.767 267.577 56.767 37.875 0 62.971-2.655 63.22-2.677l2.422-0.135c45.433 0 82.39 36.965 82.39 82.398v645.261c0 44.749-36.386 81.706-80.48 82.369z"  horiz-adv-x="1024" />

    
    <glyph glyph-name="baoyou" unicode="&#58630;" d="M365.973 250.56c-24.96 0-45.227-20.48-45.227-45.76s20.267-45.76 45.227-45.76 45.333 20.48 45.333 45.76-20.373 45.76-45.333 45.76zM549.973 560h-306.56c-4.693 0-8.533-3.84-8.533-8.533v-321.813c0-4.693 3.84-8.533 8.533-8.533h47.040c7.253 35.093 37.44 60.8 73.387 61.867h4.373c35.84-1.173 66.027-26.773 73.28-61.867h108.267c4.693 0 8.533 3.84 8.533 8.533v321.707c0.107 4.8-3.627 8.64-8.32 8.64zM352.533 412.267c-2.027-0.853-3.413-1.387-4.267-1.813-9.28-3.627-13.76-8.533-13.333-14.507v-34.56c-0.427-7.68-4.267-11.52-11.52-11.52-6.827 0-10.56 3.84-10.88 11.52v57.28c-1.387-3.84-5.013-5.76-10.88-5.76h-6.72v-51.52c-0.427-7.68-4.267-11.52-11.52-11.52-6.827 0-10.56 3.84-10.88 11.52v51.52h-4.8c-5.653 0.427-8.533 3.627-8.533 9.707 0.427 6.080 3.2 9.28 8.533 9.707h4.8v11.52c0.427 16.107 8.32 24.64 23.68 25.493 10.133 0 15.147-3.413 15.147-10.347 0-6.080-2.987-9.067-9.067-9.067-4.8 0.853-7.253-2.027-7.253-8.533v-9.067h6.72c6.613 0 10.453-2.453 11.307-7.253 1.173 5.333 4.907 8.213 11.093 8.533 7.253 0 10.88-3.2 10.88-9.707 4.053 6.507 9.28 9.707 15.787 9.707 6.827-0.853 10.453-4.8 10.88-12.16-0.107-3.627-3.093-6.72-9.173-9.173zM403.413 367.467c4.48 0 10.133 1.813 16.96 5.44 4.053 2.453 6.827 3.627 8.533 3.627 5.227-0.853 8.32-4.053 9.067-9.707-2.88-10.56-14.933-16.32-36.373-17.6-26.24 1.173-40.213 15.147-41.813 41.813 2.453 26.667 15.787 41.067 40 43.093 23.467-2.027 36.8-15.573 40-40.64 0-6.507-3.2-9.707-9.707-9.707h-47.893c2.027-10.453 9.173-16 21.227-16.32zM486.507 367.467c4.48 0 10.133 1.813 16.96 5.44 4.053 2.453 6.827 3.627 8.533 3.627 5.227-0.853 8.32-4.053 9.067-9.707-2.88-10.56-14.933-16.32-36.373-17.6-26.24 1.173-40.213 15.147-41.813 41.813 2.453 26.667 15.787 41.067 40 43.093 23.467-2.027 36.8-15.573 40-40.64 0-6.507-3.2-9.707-9.707-9.707h-47.893c2.027-10.453 9.067-16 21.227-16.32zM482.88 415.893c-10.133-0.427-16.213-6.293-18.24-17.6h35.733c-1.6 11.413-7.36 17.28-17.493 17.6zM465.28 383.787zM399.787 415.893c-10.133-0.427-16.213-6.293-18.133-17.6h35.733c-1.6 11.413-7.467 17.28-17.6 17.6zM382.187 383.787zM632.107 365.76v49.493c0 22.613 18.24 40.96 40.533 40.96h49.493l-2.453 2.453c-10.88 10.773-16.213 13.867-17.813 14.72h-102.72c-4.693 0-8.533-3.84-8.533-8.533v-234.987c0-4.693 3.84-8.533 8.533-8.533h10.133c7.040 33.173 35.307 58.667 69.12 61.547h0.96v-0.107l0.107 0.107 0.107-0.107v0.107h0.107l0.533 0.107h2.56v-0.107l0.107 0.107 0.107-0.107 0.107 0.107v-0.107l0.107 0.107h6.293c0.213 0 0.32 0 0.533-0.107h0.533v-0.213c34.133-2.56 62.827-28.16 69.867-61.653h22.4c4.693 0 8.533 3.84 8.533 8.533h0.107v95.147h-118.827c-22.293 0.107-40.533 18.453-40.533 41.067zM509.547 860.48c-263.787 0-477.653-213.867-477.653-477.653s213.867-477.653 477.653-477.653 477.653 213.867 477.653 477.653-213.867 477.653-477.653 477.653zM823.573 229.653c0-22.613-18.24-40.96-40.533-40.96h-22.4c-7.467-35.627-39.253-61.867-75.733-61.867s-68.16 26.24-75.627 61.867h-10.133c-8.96 0-17.493 2.88-24.533 8.32-7.040-5.44-15.573-8.32-24.533-8.32h-108.373c-7.467-35.627-39.253-61.867-75.733-61.867s-68.16 26.24-75.627 61.867h-46.933c-22.4 0-40.533 18.347-40.533 40.96v321.707c0 22.613 18.24 40.96 40.533 40.96h306.56c22.4 0 40.533-18.347 40.533-40.96v-46.613c2.773 0.64 5.653 0.96 8.533 0.96h104.213c6.72 0 16.32-2.56 35.947-21.227 8.427-8.107 18.133-18.453 28.053-30.293l0.107-0.107 7.467-8.853h-0.213c0.32-0.427 0.64-0.747 0.96-1.173 7.893-9.92 15.573-20.267 22.293-29.867 5.013-7.253 9.387-14.080 12.907-20.267 11.413-19.627 12.8-28.693 12.8-34.453v-129.813zM664.107 415.253v-49.493c0-4.693 3.84-8.533 8.533-8.533h118.827v2.24c-0.107 0.747-1.173 6.4-10.453 21.653l-2.133 3.52 4.48 2.88-4.48-2.667 2.027 1.387-2.133-1.173c-4.693 7.467-10.56 15.893-16.853 24.427 0 0.107-0.107 0.107-0.107 0.213-3.52 4.8-7.253 9.6-11.2 14.4h-77.973c-4.693-0.213-8.533-4.053-8.533-8.853zM684.907 250.56c-24.96 0-45.333-20.48-45.333-45.76s20.267-45.76 45.333-45.76c24.96 0 45.333 20.48 45.333 45.76s-20.373 45.76-45.333 45.76z"  horiz-adv-x="1024" />

    
    <glyph glyph-name="piaojia" unicode="&#59082;" d="M1078.396105 809.300021H457.601727c-105.664922 0-191.627241-85.962319-191.627241-191.640608V451.623412h12.052902v-2.392157l64.24831 2.300401c0.459863 0.013366 0.933093 0.039376 1.393318 0.065746 36.592923-0.894079 66.101491-30.941262 66.101491-67.74479 0-36.88264-29.626695-66.982204-66.338106-67.757433-1.169708 0.052742-2.326411 0.079112-3.496118 0.079113H278.027388v-0.079113h-12.052902V150.033168c0-105.67865 85.962319-191.640969 191.627241-191.640969H1078.396105c105.665284 0 191.627964 85.962319 191.627964 191.640969V316.095179h-24.316771l-61.908172 0.079113c-1.183074 0-2.340499-0.026371-3.496841-0.079113-36.710688 0.775229-66.337745 30.875154-66.337745 67.757433 0 36.803528 29.507846 66.850711 66.114135 67.74479 0.459863-0.026371 0.920088-0.052742 1.379952-0.065746l64.248671-2.431533v2.52365h24.316771V617.659413c0 105.678288-85.96268 191.640607-191.627964 191.640608z m129.71907-295.768076h-24.31641v-0.131493c-0.697201 0.026371-1.367308 0.131493-2.037777 0.131493-71.622382 0-129.705703-58.070317-129.705704-129.679333 0-71.622382 58.083322-129.692699 129.705704-129.692698 0.670107 0 1.340576 0.105122 2.037777 0.105122v-0.078751h24.31641v-104.153478c0-71.635748-58.083322-129.732074-129.71907-129.732074H457.601727c-71.648391 0-129.718708 58.096327-129.718708 129.732074v104.153478h12.053264v0.078751c0.696478 0 1.379952-0.105122 2.037415-0.105122 71.635025 0 129.705703 58.070317 129.705704 129.692698 0 71.609016-58.070678 129.679333-129.705704 129.679333-0.657103 0-1.340576-0.105122-2.037415-0.131493v0.131493H327.883019V617.659413c0 71.635386 58.070317 129.732074 129.718708 129.732074H1078.396105c71.635748 0 129.719069-58.096688 129.71907-129.732074v-104.127468zM888.254299 512.480364h-240.523409c-20.820292 0-37.683879-16.863949-37.683879-37.683879s16.863949-37.683879 37.683879-37.683879h240.523409c20.820292 0 37.68424 16.863949 37.68424 37.683879s-16.863949 37.683879-37.68424 37.683879zM888.254299 330.56661h-240.523409c-20.820292 0-37.683879-16.86431-37.683879-37.684241s16.863949-37.683518 37.683879-37.683518h240.523409c20.820292 0 37.68424 16.863587 37.68424 37.683518s-16.863949 37.68424-37.68424 37.684241z"  horiz-adv-x="1535" />

    
    <glyph glyph-name="dizhikong" unicode="&#58919;" d="M512-50.879999999999995c-4.32 0-9.12 1.44-12.96 4.32-13.92 10.56-338.88 262.08-338.88 523.68 0 188.16 157.92 341.28 351.84 341.28s351.84-153.12 351.84-341.28c0-261.6-325.44-513.12-338.88-523.68-3.84-2.88-8.64-4.32-12.96-4.32z m0 814.08c-164.64 0-299.04-130.08-299.04-289.44 0-205.92 240.96-416.16 299.04-463.68 57.6 47.52 299.04 257.76 299.04 463.68 0 159.84-134.4 289.44-299.04 289.44z m0-429.6c-79.68 0-144.48 63.36-144.48 141.12s64.8 141.12 144.48 141.12 144.48-63.36 144.48-141.12c0-7.68-0.96-15.84-2.4-25.44-1.92-11.04-12.96-18.24-24-16.32-11.04 1.92-18.72 12.48-16.8 23.52 1.44 6.72 1.92 12.48 1.92 17.76 0 55.68-46.56 100.8-103.2 100.8-57.12 0-103.2-45.12-103.2-100.8s46.56-100.8 103.2-100.8c5.28 0 11.04 0.48 18.24 1.92 11.04 1.92 22.08-5.28 24-16.32 1.92-11.04-5.28-21.6-16.8-23.52-9.12-1.44-17.28-1.92-25.44-1.92z"  horiz-adv-x="1024" />

    
    <glyph glyph-name="gengduo" unicode="&#58890;" d="M961.828571 896h-237.714285C647.314286 896 585.142857 833.828571 585.142857 760.685714v-201.142857c0-76.8 62.171429-135.314286 135.314286-135.314286h237.714286c76.8 0 135.314286 62.171429 135.314285 135.314286V760.685714c3.657143 73.142857-58.514286 135.314286-131.657143 135.314286z m76.8-340.114286c0-43.885714-36.571429-76.8-76.8-76.8h-237.714285c-43.885714 0-76.8 36.571429-76.8 76.8V760.685714c0 43.885714 36.571429 76.8 76.8 76.8h237.714285c43.885714 0 76.8-36.571429 76.8-76.8v-204.8zM376.685714 896H135.314286C62.171429 896 0 833.828571 0 760.685714v-201.142857C0 482.742857 62.171429 420.571429 135.314286 420.571429h237.714285c76.8 0 135.314286 62.171429 135.314286 135.314285V760.685714c3.657143 73.142857-58.514286 135.314286-131.657143 135.314286z m76.8-340.114286c0-43.885714-36.571429-76.8-76.8-76.8H135.314286c-43.885714 0-76.8 36.571429-76.8 76.8V760.685714c0 43.885714 36.571429 76.8 76.8 76.8h237.714285c43.885714 0 76.8-36.571429 76.8-76.8v-204.8zM961.828571 347.428571h-237.714285c-76.8 0-135.314286-62.171429-135.314286-135.314285v-201.142857c0-76.8 62.171429-135.314286 135.314286-135.314286h237.714285c76.8 0 135.314286 62.171429 135.314286 135.314286v201.142857c0 73.142857-62.171429 135.314286-135.314286 135.314285z m76.8-340.114285c0-43.885714-36.571429-76.8-76.8-76.8h-237.714285c-43.885714 0-76.8 36.571429-76.8 76.8v201.142857c0 43.885714 36.571429 76.8 76.8 76.8h237.714285c43.885714 0 76.8-36.571429 76.8-76.8v-201.142857zM376.685714 347.428571H135.314286c-73.142857 0-135.314286-62.171429-135.314286-135.314285v-201.142857C0-65.828571 62.171429-128 135.314286-128h237.714285c76.8 0 135.314286 62.171429 135.314286 135.314286v201.142857c3.657143 76.8-58.514286 138.971429-131.657143 138.971428z m76.8-340.114285c0-43.885714-36.571429-76.8-76.8-76.8H135.314286c-43.885714 0-76.8 36.571429-76.8 76.8v201.142857c0 43.885714 36.571429 76.8 76.8 76.8h237.714285c43.885714 0 76.8-36.571429 76.8-76.8v-201.142857z"  horiz-adv-x="1097" />

    
    <glyph glyph-name="kefu" unicode="&#58678;" d="M798.72 200.192c-10.752 0-19.968 8.704-19.968 19.968V438.784c0 147.968-120.32 268.288-268.288 268.288S242.176 586.752 242.176 438.784V220.16c0-10.752-8.704-19.968-19.968-19.968s-19.968 8.704-19.968 19.968V438.784c0 169.984 138.24 308.224 308.224 308.224s308.224-138.24 308.224-308.224V220.16c0-11.264-9.216-19.968-19.968-19.968zM805.376 200.192c-11.264 0-19.968 8.704-19.968 19.968 0 10.752 8.704 19.968 19.968 19.968 64 0 115.712 47.616 115.712 105.984 0 58.368-52.224 105.984-115.712 105.984-11.264 0-19.968 8.704-19.968 19.968 0 10.752 8.704 19.968 19.968 19.968 86.016 0 155.648-65.536 155.648-145.92s-70.144-145.92-155.648-145.92zM215.552 200.192c-86.016 0-155.648 65.536-155.648 145.92S130.048 491.52 215.552 491.52c10.752 0 19.968-8.704 19.968-19.968 0-10.752-8.704-19.968-19.968-19.968-64 0-116.224-47.616-116.224-105.984 0-58.368 52.224-105.984 116.224-105.984 10.752 0 19.968-8.704 19.968-19.968 0-10.752-8.704-19.456-19.968-19.456zM657.92 67.072c-10.24 0-18.944 7.68-19.968 18.432-1.024 10.752 7.168 20.48 18.432 21.504 122.368 9.728 122.368 97.28 122.368 100.864 0 10.752 8.704 19.968 19.456 19.968 10.752 0 19.968-8.704 19.968-19.456 0-1.024 0-128.512-159.232-140.8 0-0.512-0.512-0.512-1.024-0.512zM610.304 113.152c12.8 0 23.552-10.752 23.552-23.552 0-12.8-10.752-23.552-23.552-23.552-12.8 0-23.552 10.752-23.552 23.552 0 13.312 10.24 23.552 23.552 23.552m0 39.936c-34.816 0-63.488-28.16-63.488-63.488s28.16-63.488 63.488-63.488c34.816 0 63.488 28.16 63.488 63.488 0 34.816-28.672 63.488-63.488 63.488z"  horiz-adv-x="1024" />

    
    <glyph glyph-name="activity" unicode="&#59145;" d="M265.248 16.118000000000052l123.556 224.788c13.4 24.808 6.456 52.104-21.832 81.38L111.42 487.032c-31.76 0-44.166-15.384-35.728-46.646l193.03-162.76-63.52-261.508c20.842-23.322 41.192-23.322 60.046 0zM529.236 775.332c-7.942 30.768-26.304 38.21-54.088 22.332l-107.184-228.756-269.45-5.956c-16.868-26.298-11.906-45.654 15.386-58.058l249.598-61.034c27.29-6.948 51.608 7.444 72.944 42.178l92.794 289.294zM955.484 493.978c25.31 19.352 25.31 38.704-0.494 58.554l-252.078 10.42L593.246 808.58c-31.262 5.458-47.14-6.946-47.634-36.72l40.194-253.568c4.464-27.79 26.796-45.158 67.486-51.11l302.192 26.796zM700.434 337.172c-24.32-14.886-31.76-41.686-21.838-81.38l138.944-269.942c27.29-15.878 45.15-8.438 54.088 22.822l-85.85 237.194 186.084 194.52c-6.946 30.766-24.314 40.692-52.104 30.27l-219.324-133.484zM758.488 18.597999999999956l-186.084 175.666c-20.836 19.848-49.124 19.848-84.358-0.502L264.748-11.173999999999978c-8.43-30.766 3.974-46.148 35.73-46.148l205.932 145.392 236.694-127.53c27.79 14.394 32.75 33.748 15.384 58.058z"  horiz-adv-x="1024" />

    
    <glyph glyph-name="juchangjuyuanxinxi" unicode="&#58955;" d="M0.000223 1.558261m33.391304 0l957.217391 0q33.391304 0 33.391305-33.391304l0 0q0-33.391304-33.391305-33.391305l-957.217391 0q-33.391304 0-33.391304 33.391305l0 0q0 33.391304 33.391304 33.391304ZM200.348049 157.384348m33.391304 0l556.521739 0q33.391304 0 33.391305-33.391305l0 0q0-33.391304-33.391305-33.391304l-556.521739 0q-33.391304 0-33.391304 33.391304l0 0q0 33.391304 33.391304 33.391305ZM957.217614 758.427826v-531.812174l-201.683478 336.806957-31.165218 52.535652-54.984348-26.490435A390.678261 390.678261 0 0 0 512.000223 547.394783a389.787826 389.787826 0 0 0-157.384348 42.073043l-54.984348 26.490435-31.165217-52.313044L66.782831 226.838261V758.427826h890.434783m32.723478 66.782609H34.281962A34.05913 34.05913 0 0 1 0.000223 791.151304v-682.518261a34.05913 34.05913 0 0 1 24.932174-32.946086 31.387826 31.387826 0 0 1 8.904347 0 34.504348 34.504348 0 0 1 29.606957 16.473043l262.233043 436.98087A460.132174 460.132174 0 0 1 512.000223 480.612174a461.022609 461.022609 0 0 1 186.323478 48.528696l262.233043-438.093913a33.613913 33.613913 0 0 1 29.161739-16.695653 35.172174 35.172174 0 0 1 9.349566 1.335653A34.281739 34.281739 0 0 1 1024.000223 108.633043V791.151304a34.05913 34.05913 0 0 1-34.059131 34.059131z"  horiz-adv-x="1024" />

    
    <glyph glyph-name="huiyuanzhuanxiangquan" unicode="&#59058;" d="M330.3 681.3v-594.6h66.1V681.3h-66.1zM445.9 417h231.3v66.1H445.9V417zM445.9 284.9h231.3V351H445.9v-66.1zM875.4 615.2v-43.6c-9.1-1.9-18.2-4.5-27.1-7.9-94.5-35.6-93.2-127.6-92.3-182.6 2-133.9 71-173.2 119.4-184.2v-44.1H148.6v44.1c48 11 116.9 50.1 119.4 183.5 1 55.1 2.7 147.2-91.9 183.2-9 3.4-18.2 6.1-27.5 8v43.6h726.8m5 66.1H143.6c-33.7 0-61-28-61-62.6v-49.8c0-30.8 22-56 51.5-61.8 6.1-1.2 12.3-3 18.6-5.3 49.6-18.9 50.3-65.9 49.3-120.2-1.3-68-22.3-122.8-88.9-122.8h-0.3-0.1c-16.4 0-30.1-12.7-30.1-29.6v-80c0-34.6 27.3-62.6 61-62.6h736.9c33.7 0 61 28 61 62.6v80c0 16.9-13.7 29.6-30.1 29.6h-0.4c-66.7 0-87.9 55-88.9 123.2-0.8 54.3-0.1 101.1 49.6 119.8 6.2 2.3 12.3 4 18.3 5.2 29.5 5.8 51.6 31 51.6 61.8v49.8c-0.2 34.7-27.5 62.7-61.2 62.7z"  horiz-adv-x="1024" />

    
    <glyph glyph-name="jifen" unicode="&#58627;" d="M203.10741739 560.05563466a301.85743332 155.12480736 0 1 1 617.78516522 0 301.85743332 155.12480736 0 1 1-617.78516523 0ZM512 353.55783705c-126.17241419 0-234.67207394 38.87658102-282.62573307 94.59117022-16.88385541-19.61654403-26.26684953-41.31916312-26.26684954-64.14900727 0-87.6697302 138.29600093-158.74017672 308.89258261-158.74017672s308.89258261 71.0704473 308.89258261 158.74017672c0 22.82984339-9.38220311 44.53246325-26.26684954 64.14900728C746.67207394 392.43441808 638.17241419 353.55783705 512 353.55783705zM512 173.12531673c-127.81898351 0-237.50278207 39.89709006-284.47466489 96.78000779-15.72026912-19.03712198-24.41791694-39.97692856-24.41791694-61.96016893 0-87.6697302 138.29600093-158.74017672 308.89258261-158.74017672s308.89258261 71.0704473 308.8925826 158.74017672c0 21.98403063-8.69764784 42.92304694-24.41791694 61.96016893C749.50278207 213.02240755000003 639.81898351 173.12531673 512 173.12531673z"  horiz-adv-x="1024" />

    
    <glyph glyph-name="qiabao" unicode="&#58659;" d="M882.261 809.197H141.738C63.461 809.197 0.006 745.741 0.006 667.465v-566.93c0-78.275 63.456-141.732 141.732-141.732H882.26c78.276 0 141.732 63.457 141.732 141.732v566.93c0.001 78.277-63.455 141.732-141.731 141.732z m-740.523-80H882.26c34.039 0 61.732-27.693 61.732-61.732v-202.283H596.881l-80-80-4.882-4.881-4.881 4.881-80 80H80.006V667.465c0 34.039 27.693 61.732 61.732 61.732z m740.523-690.394H141.738c-34.04 0-61.732 27.693-61.732 61.732V385.182h313.975l61.449-61.449 56.568-56.568 56.57 56.568 61.451 61.449h313.974v-284.646c0-34.04-27.693-61.733-61.732-61.733zM375.216 632.077H39.133v-80h945.732v80z"  horiz-adv-x="1024" />

    
    <glyph glyph-name="zhekou" unicode="&#59255;" d="M460.8-28.444c-25.6 0-48.356 17.066-73.956 42.666L142.222 256c-56.889 56.889-56.889 91.022 0 150.756l384 384c5.69 5.688 11.378 8.533 19.911 8.533L870.4 768h2.844c11.378-2.844 19.912-11.378 19.912-22.756l31.288-324.266c0-8.534-2.844-14.222-8.533-19.911L534.756 14.222c-25.6-25.6-48.356-42.666-73.956-42.666z m93.867 782.222l-384-381.156c-39.823-39.822-39.823-42.666 0-79.644L418.133 45.51c11.378-11.378 28.445-28.444 39.823-28.444 11.377 0 28.444 17.066 39.822 28.444l384 381.156-28.445 298.666-298.666 28.445zM696.889 475.022c-51.2 0-93.867 42.667-93.867 93.867s42.667 93.867 93.867 93.867 93.867-42.667 93.867-93.867-42.667-93.867-93.867-93.867z m0 156.445c-31.289 0-59.733-25.6-59.733-59.734 0-31.289 25.6-59.733 59.733-59.733s59.733 25.6 59.733 59.733c0 31.29-28.444 59.734-59.733 59.734z"  horiz-adv-x="1024" />

    
    <glyph glyph-name="youhuiquan2" unicode="&#58897;" d="M1539.08834425 1606.98440988l-884.21601799 0 102.13544799-104.224499-94.75991101-96.698441 94.75991101-96.698441-96.187581-98.15347899 96.132846-98.09418301-93.341363-95.243403 93.396098-95.302699-111.522494-113.803118L1539.08834425 808.76614688l0 798.218263zM1539.08834425 808.76614688l-893.443421 0 103.20278-104.224499-95.749702-96.698441 95.749702-96.698441-97.191056-98.153479 97.136321-98.094182-94.31290899-95.243403 94.36764399-95.3027-112.685613-113.803118L1539.08834425 10.547883879999972l0 798.218263zM1539.08834425 10.547883879999972l-902.269434 0 104.219937-104.224499-96.693879-96.698441 96.693879-96.698441-98.148917-98.153479 98.094183-98.094182-95.243404-95.243403 95.298138-95.3027-113.798556-113.803118L1539.08834425-787.67037912l0 798.218263zM645.08389024 1606.98440988l0-2.791483 2.79148301 2.791483L645.08389024 1606.98440988zM825.25315525 678.77060088l-76.405452 25.771047L708.94135126 827.01113588l374.22296599 59.296214 371.540954-13.683742 72.979955-47.893096 0-31.92873-68.418708-38.770602zM679.29324425-0.8552341199999773l-42.474334 11.403118L898.23311025 76.68596888000002 1484.35337826 37.915366879999965l54.73496599-27.367483-77.541203-11.403118-727.51893-22.806236z"  horiz-adv-x="2635" />

    
    <glyph glyph-name="yemian-copy-copy" unicode="&#58628;" d="M562.805 815.3025a72.135 72.135 0 0 1-96.93 0L73.925 443.13a36.1575 36.1575 0 0 1 48.42-53.7075l6.2325 5.9175V6.899999999999977a72.315 72.315 0 0 1 72.315-72.405h210.4425v217.71a50.9175 50.9175 0 0 0 50.94 50.985h99.0225a50.9175 50.9175 0 0 0 50.94-50.985v-217.71h215.4375a72.315 72.315 0 0 1 72.3375 72.405V390.5925c16.065-14.535 38.8575-13.4325 52.2225 1.4625a36.1575 36.1575 0 0 1-2.61 51.075L562.805 815.28z"  horiz-adv-x="1024" />

    
    <glyph glyph-name="shengri" unicode="&#58976;" d="M279.808 770.304m-28.416 0a28.416 28.416 0 1 1 56.832 0 28.416 28.416 0 1 1-56.832 0ZM509.696 770.304m-28.416 0a28.416 28.416 0 1 1 56.832 0 28.416 28.416 0 1 1-56.832 0ZM741.12 770.304m-28.416 0a28.416 28.416 0 1 1 56.832 0 28.416 28.416 0 1 1-56.832 0ZM288.768 439.808h-17.92c-8.448 0-15.36 6.912-15.36 15.36V696.832c0 8.448 6.912 15.36 15.36 15.36h17.92c8.448 0 15.36-6.912 15.36-15.36v-241.408c0-8.704-6.912-15.616-15.36-15.616zM518.656 439.808h-17.92c-8.448 0-15.36 6.912-15.36 15.36V696.832c0 8.448 6.912 15.36 15.36 15.36h17.92c8.448 0 15.36-6.912 15.36-15.36v-241.408c0-8.704-6.912-15.616-15.36-15.616zM750.336 439.808h-17.92c-8.448 0-15.36 6.912-15.36 15.36V696.832c0 8.448 6.912 15.36 15.36 15.36h17.92c8.448 0 15.36-6.912 15.36-15.36v-241.408c0-8.704-6.912-15.616-15.36-15.616zM849.408 49.408H169.728c-16.896 0-30.72 13.824-30.72 30.72V397.056c0 16.896 13.824 30.72 30.72 30.72h679.68c16.896 0 30.72-13.824 30.72-30.72v-316.928c0-16.896-13.824-30.72-30.72-30.72z m-10.24 37.888V376.832c0 1.28-1.024 2.048-2.048 2.048H182.272c-1.28 0-2.048-1.024-2.048-2.048V87.04c0-1.28 1.024-2.048 2.048-2.048H837.12c1.28 0.256 2.048 1.024 2.048 2.304zM965.12 37.12H54.272c-8.448 0-15.36 6.912-15.36 15.36v17.92c0 8.448 6.912 15.36 15.36 15.36H965.12c8.448 0 15.36-6.912 15.36-15.36v-17.92c0-8.448-6.912-15.36-15.36-15.36z"  horiz-adv-x="1024" />

    
    <glyph glyph-name="RectangleCopy" unicode="&#59042;" d="M834.389333 156.458667h-56.917333v170.666666a18.944 18.944 0 1 1-37.930667 0v-170.666666H284.458667V384A227.797333 227.797333 0 0 0 512 611.541333a226.56 226.56 0 0 0 221.44-175.018666 18.986667 18.986667 0 0 1 36.949333 8.746666c-26.965333 113.92-124.074667 194.432-239.445333 202.624v58.453334a18.986667 18.986667 0 0 1-37.888 0V648.533333c-137.557333-9.813333-246.528-124.586667-246.528-264.533333v-227.541333H189.610667a18.986667 18.986667 0 0 1 0-37.973334h644.778666a18.986667 18.986667 0 0 1 0 37.973334M606.805333 80.597333H415.573333a18.986667 18.986667 0 0 1 0-37.930666h191.232a18.986667 18.986667 0 0 1 0 37.930666"  horiz-adv-x="1024" />

    
    <glyph glyph-name="RectangleCopy1" unicode="&#59043;" d="M517.632 343.850667c-108.714667 0-197.162667 85.546667-197.162667 190.72 0 38.314667 11.690667 75.306667 33.877334 106.922666C391.04 693.973333 452.138667 725.333333 517.632 725.333333c65.408 0 126.464-31.274667 163.2-83.712 7.765333-11.093333 14.250667-22.869333 19.413333-35.072a21.333333 21.333333 0 1 0-39.338666-16.64 147.285333 147.285333 0 0 1-15.018667 27.221334C617.130667 658.176 569.173333 682.666667 517.632 682.666667c-51.626667 0-99.584-24.533333-128.426667-65.621334a143.445333 143.445333 0 0 1-26.069333-82.432c0-81.664 69.290667-148.096 154.453333-148.096 63.402667 0 119.722667 36.437333 143.36 92.8a21.333333 21.333333 0 0 0 39.338667-16.512c-30.378667-72.277333-102.016-118.954667-182.656-118.954666M303.829333 268.544c-49.92 0-90.453333-41.088-90.453333-91.605333C213.333333 126.421333 253.866667 85.333333 303.786667 85.333333h416.341333C770.133333 85.333333 810.666667 126.421333 810.666667 176.938667c0 50.517333-40.533333 91.605333-90.453334 91.605333H303.786667zM720.213333 42.666667H303.829333C230.442667 42.666667 170.709333 102.912 170.709333 176.938667 170.666667 250.965333 230.4 311.210667 303.786667 311.210667h416.341333C793.6 311.210667 853.333333 250.965333 853.333333 176.938667 853.333333 102.912 793.6 42.666667 720.213333 42.666667z"  horiz-adv-x="1024" />

    
    <glyph glyph-name="RectangleCopy2" unicode="&#59046;" d="M676.44928 207.957333L542.17728 342.186667 675.510613 475.562667a21.290667 21.290667 0 0 1 0 30.165333 21.290667 21.290667 0 0 1-30.165333 0L512.011947 372.394667 378.635947 505.728a21.333333 21.333333 0 1 1-30.208-30.165333L481.846613 342.186667 347.574613 207.957333a21.333333 21.333333 0 0 1 30.208-30.165333L512.011947 312.021333l134.229333-134.229333a21.248 21.248 0 0 1 30.208 0 21.333333 21.333333 0 0 1 0 30.165333"  horiz-adv-x="1024" />

    
    <glyph glyph-name="RectangleCopy3" unicode="&#59047;" d="M829.525333 384a21.333333 21.333333 0 0 1 21.333334 21.333333V596.992C850.858667 644.224 813.653333 682.666667 767.829333 682.666667h-97.024A128.298667 128.298667 0 0 1 550.4 768a128.512 128.512 0 0 1-120.234667-85.333333H336.554667c-45.781333 0-83.029333-38.442667-83.029334-85.674667v-511.317333c0-47.232 37.248-85.674667 83.029334-85.674667h431.274666c45.781333 0 83.029333 38.442667 83.029334 85.674667V277.333333a21.333333 21.333333 0 0 1-42.666667 0v-191.658666c0-23.722667-18.090667-43.008-40.362667-43.008H336.554667c-22.272 0-40.362667 19.285333-40.362667 43.008V596.992c0 23.722667 18.090667 43.008 40.362667 43.008H443.733333a20.992 20.992 0 0 1 12.842667 4.736 20.992 20.992 0 0 1 10.538667 13.781333A85.802667 85.802667 0 0 0 550.4 725.333333c40.448 0 75.605333-28.714667 83.669333-68.266666a21.333333 21.333333 0 0 1 20.906667-17.066667c0.853333 0 1.706667 0.170667 2.56 0.256 0.469333 0 0.853333-0.256 1.322667-0.256h108.970666c22.272 0 40.362667-19.285333 40.362667-43.008V405.333333a21.333333 21.333333 0 0 1 21.333333-21.333333M445.525333 448h213.333334a21.333333 21.333333 0 0 1 0 42.666667h-213.333334a21.333333 21.333333 0 0 1 0-42.666667M445.525333 320h213.333334a21.333333 21.333333 0 0 1 0 42.666667h-213.333334a21.333333 21.333333 0 0 1 0-42.666667M447.317333 192h213.333334a21.333333 21.333333 0 0 1 0 42.666667h-213.333334a21.333333 21.333333 0 0 1 0-42.666667"  horiz-adv-x="1066" />

    
    <glyph glyph-name="RectangleCopy4" unicode="&#59048;" d="M829.525333 383.104a21.333333 21.333333 0 0 1 21.333334 21.333333V682.325333C850.858667 729.557333 813.653333 768 767.829333 768H422.4a21.162667 21.162667 0 0 1-15.146667-6.4c-0.298667-0.256-0.682667-0.341333-0.938666-0.597333L259.754667 614.442667a21.077333 21.077333 0 0 1-5.973334-16.085334c-0.085333-0.341333-0.256-0.64-0.256-1.024v-512.554666c0-47.232 37.248-85.674667 83.029334-85.674667h431.274666c45.781333 0 83.029333 38.442667 83.029334 85.674667v191.658666a21.333333 21.333333 0 0 1-42.666667 0v-191.658666c0-23.722667-18.090667-43.008-40.362667-43.008H336.554667c-22.272 0-40.362667 19.285333-40.362667 43.008V590.549333L431.018667 725.333333h336.853333c22.229333 0 40.32-19.285333 40.32-43.008v-277.888a21.333333 21.333333 0 0 1 21.333333-21.333333M445.525333 490.666667h213.333334a21.333333 21.333333 0 0 1 0 42.666666h-213.333334a21.333333 21.333333 0 0 1 0-42.666666M445.525333 362.666667h213.333334a21.333333 21.333333 0 0 1 0 42.666666h-213.333334a21.333333 21.333333 0 0 1 0-42.666666M447.317333 234.666667h213.333334a21.333333 21.333333 0 0 1 0 42.666666h-213.333334a21.333333 21.333333 0 0 1 0-42.666666"  horiz-adv-x="1066" />

    
    <glyph glyph-name="shezhi" unicode="&#58965;" d="M881 384c0 52.4 32.9 96.8 79 114.5-11 43.2-28 83.9-50.2 121.3C864.6 599.7 810 607.9 773 645c-37 37-45.2 91.7-25.1 136.8C710.4 804 669.7 821 626.5 832c-17.8-46.1-62.2-79-114.5-79-52.4 0-96.8 32.9-114.5 79-43.2-11-83.9-28-121.3-50.2 20.1-45.2 11.9-99.8-25.1-136.8-37-37-91.7-45.2-136.8-25.2C92 582.4 75 541.7 64 498.5c46.1-17.8 79-62.2 79-114.5 0-52.4-32.9-96.8-79-114.5 11-43.2 28-83.9 50.2-121.3C159.4 168.3 214 160.1 251 123c37-37 45.2-91.7 25.1-136.8C313.6-36 354.3-53 397.5-64c17.8 46.1 62.2 79 114.5 79 52.4 0 96.8-32.9 114.5-79 43.2 11 83.9 28 121.3 50.2-20.1 45.2-11.9 99.8 25.1 136.8 37 37 91.7 45.2 136.8 25.2C932 185.6 949 226.3 960 269.5c-46.1 17.7-79 62.1-79 114.5zM512 261c-67.9 0-123 55.1-123 123s55.1 123 123 123 123-55.1 123-123-55.1-123-123-123z"  horiz-adv-x="1024" />

    
    <glyph glyph-name="quan" unicode="&#58921;" d="M375.0912-54.9888l560.6912 270.7456c3.3024-0.0512 6.656 0.1536 9.984 0.5632l20.6336-73.9072c10.2912-34.8928-10.3168-69.7856-43.264-77.9776L440.832-73.088a64.7168 64.7168 0 0 0-65.7664 18.0992z m589.2352 561.6896l49.4592-102.6304c22.6816-45.1584 4.1216-100.5824-43.264-123.136L323.4048-35.2a91.648 91.648 0 0 0-123.648 43.1104L150.272 110.5408c39.168 24.6528 53.6064 75.9552 32.9728 119.04-20.608 43.136-70.0672 61.5936-115.4048 47.232l-57.7024 119.04c-22.656 45.1584-4.096 100.608 43.264 123.1616L700.5696 835.1232a91.648 91.648 0 0 0 123.648-43.1104l59.776-121.088c-39.168-24.6528-53.6064-75.9552-32.9728-119.0656 20.608-41.0624 70.0672-61.568 113.3312-45.1584zM356.3776 87.9872c4.096 0 6.1696 0 8.2432 2.048 10.2912 4.096 14.4128 16.4096 10.2912 26.6752l-8.2432 18.4832c-4.096 10.24-16.4864 14.336-26.7776 10.24-10.3168-4.096-14.4384-16.384-10.3168-26.6752l8.2432-18.4576c4.1216-8.2176 10.3168-12.3136 18.56-12.3136z m-45.3376 92.3648c4.096 0 6.1696 0 8.2432 2.048 10.2912 4.096 14.4128 16.4096 10.2912 26.6752l-8.2432 18.4832c-4.096 10.24-16.4864 14.336-26.7776 10.24-10.3168-4.096-14.4384-16.384-10.3168-26.6752l8.2432-18.4576c4.1216-8.2176 10.3168-12.3136 18.56-12.3136z m-45.3376 90.2912c4.096 0 6.1696 2.048 8.2432 2.048 10.2912 4.1216 14.4128 16.4352 10.2912 26.7008l-8.2432 18.4832c-4.096 10.24-16.4864 14.336-26.7776 10.24-10.3168-4.096-14.4384-16.4096-10.3168-26.6752l8.2432-18.4576c4.1216-8.2176 10.3168-12.3392 18.56-12.3392z m-43.264 92.3648c2.048 0 6.144 2.048 8.2176 2.048 10.3168 4.1216 14.4384 16.4352 10.3168 26.7008l-8.2432 18.4832c-4.1216 10.24-16.4864 14.336-26.8032 10.24-10.2912-4.096-14.4128-16.384-10.2912-26.6752l8.2432-18.4576c4.096-8.2176 10.2912-12.3392 18.5344-12.3392zM177.0496 455.424c2.048 0 6.1696 2.048 8.2432 2.048 10.3168 4.096 14.4384 16.4096 10.3168 26.6752l-8.2688 18.4832c-4.096 10.24-16.4864 14.336-26.7776 10.24-10.3168-4.096-14.4384-16.384-10.3168-26.6752l8.2432-18.4576c4.1216-8.2176 10.3168-12.3136 18.56-12.3136z m168.9856 47.2064c-18.5344-10.2656-28.8512-34.8928-18.5344-55.424a41.3696 41.3696 0 0 1 55.6288-18.4832l185.4976 90.3168a41.0624 41.0624 0 0 1 18.5344 55.424 41.3696 41.3696 0 0 1-55.6288 18.4832l-185.4976-90.3168z m74.1888-147.7888a41.0624 41.0624 0 0 1-18.5344-55.424 41.3696 41.3696 0 0 1 55.6288-18.4832l331.8016 162.1504a41.0624 41.0624 0 0 1 18.56 55.424 41.3696 41.3696 0 0 1-55.6544 18.4832l-331.776-162.1504z"  horiz-adv-x="1024" />

    
    <glyph glyph-name="dingdanguanli-" unicode="&#58887;" d="M826.3802209-83.19440578000001H197.6197791C125.88892084-83.19440578000001 67.02843186-27.851817770000025 67.02843186 40.79015184000002V727.20984816c0 68.64196964 58.60308158 123.81295271 130.59134724 123.8129527h111.54320064v-51.48147721h-111.54320064c-43.58765071 0-79.10987001-32.43333065-79.10986999-72.33147549v-686.41969632c0-39.89814483 35.43641682-72.33147549 79.10986999-72.33147549h628.84624427c43.58765071 0 79.10987001 32.43333065 79.10987 72.33147549V727.20984816c0 39.89814483-35.43641682 72.33147549-79.10987 72.33147549h-103.992584v51.48147721h103.90678153C898.11107916 851.19440578 956.97156814 795.85181777 956.97156814 727.20984816v-686.41969632c0-68.64196964-58.86048895-123.98455764-130.59134724-123.98455762zM598.91789404 799.71292858H437.35185803a25.7407386 25.7407386 0 1 0 0 51.4814772h161.56603601a25.7407386 25.7407386 0 0 0 0-51.4814772zM769.40738611 512.7036930300001H276.4722417a25.7407386 25.7407386 0 0 0 0 51.48147725H769.40738611a25.7407386 25.7407386 0 0 0 0-51.48147725zM769.40738611 343.67284285000005H276.4722417a25.7407386 25.7407386 0 1 0 0 51.48147721H769.40738611a25.7407386 25.7407386 0 1 0 0-51.48147721zM769.40738611 174.72779508999997H276.4722417a25.7407386 25.7407386 0 0 0 0 51.48147722H769.40738611a25.7407386 25.7407386 0 0 0 0-51.48147722z"  horiz-adv-x="1024" />

    
    <glyph glyph-name="sandian" unicode="&#58891;" d="M521 382.3m-105.3 0a105.3 105.3 0 1 1 210.6 0 105.3 105.3 0 1 1-210.6 0ZM222 382.3m-105.3 0a105.3 105.3 0 1 1 210.6 0 105.3 105.3 0 1 1-210.6 0ZM816.7 382.3m-105.3 0a105.3 105.3 0 1 1 210.6 0 105.3 105.3 0 1 1-210.6 0Z"  horiz-adv-x="1024" />

    
    <glyph glyph-name="yijian" unicode="&#58905;" d="M514.3 331.9c-11.4 0-20.6-9.3-20.6-20.8s9.2-20.8 20.6-20.8c11.4 0 20.6 9.3 20.6 20.8s-9.2 20.8-20.6 20.8z m330.9 413.6H741.8c-39.2 0-39.2-41.4 0-41.4h103.4c22.4 0 41.4-19.1 41.4-41.4v-455.1c0-22.2-18.9-41.4-41.4-41.4H679.8c-18.9 0-40.3 0.3-62.1-20.7 0 0-43.9-47.1-62.1-62.1-32.3-26.8-27.2-29.7-62.1 0-17.1 14.6-82.7 62.1-82.7 62.1-19.2 13.9-43.2 20.7-62.1 20.7H183.3c-22.4 0-41.4 19.1-41.4 41.4V662.8c0 22.2 18.9 41.4 41.4 41.4h103.4c25.7 1.3 30.2 41.4 0 41.4H171.6c-49 0-71.1-21.9-71.1-82.8v-455.1c0.6-60.9 21.5-83.4 82.7-82.7l187.8 1.6 101.9-84.3c37.2-29.3 80.5-26.7 103.4 0l81.2 84.3 187.8-1.6c59.3 1.3 82.7 21.2 82.7 82.7V662.8c0 60.9-20.2 82.7-82.8 82.7zM534.9 435.2V704.1c0 26.1-41.3 27.2-40.6 1.1l-0.7-270c0-28.1 40.7-28.2 41.3 0z"  horiz-adv-x="1024" />

    
    <glyph glyph-name="sousuo" unicode="&#58882;" d="M950.784-3.584L782.336 164.352c64.512 74.752 99.84 168.96 99.84 268.8 0 110.08-43.008 212.992-120.32 290.816S581.12 844.8 471.552 844.8c-110.08 0-212.992-43.008-290.816-120.32-77.824-77.824-120.832-181.248-120.832-291.328s43.008-212.992 120.32-290.816c77.824-77.824 181.248-120.32 290.816-120.32 90.624 0 177.152 29.184 248.32 82.944l169.984-169.984c8.192-8.192 19.456-12.8 30.72-12.8s22.016 4.096 30.72 12.8c16.896 16.896 16.896 44.544 0 61.44zM146.432 433.152c0 179.2 145.92 324.608 324.608 324.608 179.2 0 324.608-145.92 324.608-324.608 0-179.2-145.408-324.608-324.608-324.608s-324.608 145.92-324.608 324.608z"  horiz-adv-x="1024" />

    
    <glyph glyph-name="goupiao" unicode="&#58640;" d="M615.3 137.4c-96.7 1.1-174.4 80.6-173.4 177.2S522.5 489 619.2 487.9s174.4-80.6 173.3-177.2c-1.1-96.6-80.6-174.4-177.2-173.3z m3.5 320.1c-79.9 0.9-145.5-63.4-146.4-143.2s63.4-145.5 143.2-146.4S761.2 231.2 762.1 311c0.8 79.9-63.4 145.6-143.3 146.5zM916.3 48.2l-751.7 8.3c-38.5 0.4-69.4 32.1-69 70.5l2.8 256.8c0.1 9.6 8 17.3 17.6 17.2 9.6-0.1 17.3-8 17.2-17.6l-2.8-256.8c-0.2-19.3 15.3-35.1 34.6-35.3l751.7-8.3c19.3-0.2 35.1 15.3 35.3 34.6l0.8 75.6c-48.5 17.1-82.1 64-81.5 116.5 0.6 52.4 35.2 98.6 84 114.7l0.8 75.6c0.2 19.3-15.3 35.1-34.6 35.3l-752.2 8.3c-19 0.2-34.6-15.1-34.8-34l-0.7-63.1c-0.1-9.6-8-17.3-17.6-17.2-9.6 0.1-17.3 8-17.2 17.6l0.7 63.1c0.4 38.2 31.8 68.9 70 68.5l752.2-8.3c38.5-0.4 69.4-32.1 69-70.5l-1.1-102.9L976 394c-40.1-8.1-69.5-43.6-69.9-84.6s28.2-77.1 68-86.1l13.7-3.1-1.1-102.9c-0.3-38.6-31.9-69.5-70.4-69.1zM67.5 434.1c-7.9 0.1-15 5.6-16.8 13.7l-13.5 61.7c-8.1 37.3 15.6 74.3 52.9 82.4l735 160.4c37.6 8.2 74.8-15.7 83-53.3L930 598.4l-12.8-5.8c-14.4-6.5-26.8-16.9-35.8-30-5.4-7.9-16.3-9.9-24.2-4.5-7.9 5.4-9.9 16.3-4.5 24.2 9.9 14.4 22.7 26.4 37.5 35.4l-16.1 73.8c-4.1 18.8-22.8 30.8-41.6 26.7l-735-160.4c-18.5-4-30.3-22.4-26.3-41l13.5-61.6c2-9.4-3.9-18.7-13.3-20.7-1.3-0.3-2.6-0.5-3.9-0.4zM271.3 455.5c-9.6 0.1-17.3 8-17.2 17.6l0.3 31.5c0.1 9.6 8 17.3 17.6 17.2 9.6-0.1 17.3-8 17.2-17.6l-0.3-31.5c-0.1-9.6-8-17.3-17.6-17.2z m-1-86.1c-9.6 0.1-17.3 8-17.2 17.6l0.3 31.5c0.1 9.6 8 17.3 17.6 17.2 9.6-0.1 17.3-8 17.2-17.6l-0.3-31.5c-0.1-9.6-8-17.3-17.6-17.2z m-0.9-86.2c-9.6 0.1-17.3 8-17.2 17.6l0.3 31.5c0.1 9.6 8 17.3 17.6 17.2s17.3-8 17.2-17.6l-0.3-31.5c-0.1-9.6-8-17.3-17.6-17.2z m-1-86.2c-9.6 0.1-17.3 8-17.2 17.6l0.3 31.5c0.1 9.6 8 17.3 17.6 17.2 9.6-0.1 17.3-8 17.2-17.6l-0.3-31.5c-0.1-9.6-8-17.3-17.6-17.2z m-0.9-86.2c-9.6 0.1-17.3 8-17.2 17.6l0.3 31.5c0.1 9.6 8 17.3 17.6 17.2s17.3-8 17.2-17.6l-0.3-31.5c-0.1-9.6-8-17.3-17.6-17.2zM611.9 330.2c-4.4 0-8.6 2.3-11 6.3l-31.4 51.7c-3.7 6.2-1.8 14.2 4.4 17.9 6.2 3.7 14.2 1.8 17.9-4.4l31.4-51.7c3.7-6.2 1.8-14.2-4.4-17.9-2.2-1.3-4.6-1.9-6.9-1.9zM621.9 330.1c-2.4 0-4.7 0.7-6.9 2-6.1 3.9-7.9 11.9-4 18l32.5 51c3.9 6.1 11.9 7.9 18 4 6.1-3.9 7.9-11.9 4-18l-32.5-51c-2.4-3.9-6.7-6.1-11.1-6zM664.4 310.9l-94.4 1c-7.2 0.1-13 6-12.9 13.2s6 13 13.2 12.9l94.4-1c7.2-0.1 13-6 12.9-13.2-0.1-7.2-6-13-13.2-12.9z m-0.5-50l-94.4 1c-7.2 0.1-13 6-12.9 13.2 0.1 7.2 6 13 13.2 12.9l94.4-1c7.2-0.1 13-6 12.9-13.2-0.1-7.2-6-13-13.2-12.9zM616.2 217.7c-7.2 0.1-13 6-12.9 13.2l1.1 99.9c0.1 7.2 6 13 13.2 12.9 7.2-0.1 13-6 12.9-13.2l-1.1-99.9c-0.1-7.2-6-13-13.2-12.9z"  horiz-adv-x="1024" />

    


  </font>
</defs>
</svg>
